<?xml version="1.0" encoding="UTF-8" standalone="no"?>
<svg
   xmlns:dc="http://purl.org/dc/elements/1.1/"
   xmlns:cc="http://creativecommons.org/ns#"
   xmlns:rdf="http://www.w3.org/1999/02/22-rdf-syntax-ns#"
   xmlns:svg="http://www.w3.org/2000/svg"
   xmlns="http://www.w3.org/2000/svg"
   xmlns:sodipodi="http://sodipodi.sourceforge.net/DTD/sodipodi-0.dtd"
   xmlns:inkscape="http://www.inkscape.org/namespaces/inkscape"
   viewBox="0 0 9.66 6.65"
   version="1.1"
   id="svg14"
   sodipodi:docname="vuex.svg"
   inkscape:version="0.92.5 (2060ec1f9f, 2020-04-08)">
  <metadata
     id="metadata18">
    <rdf:RDF>
      <cc:Work
         rdf:about="">
        <dc:format>image/svg+xml</dc:format>
        <dc:type
           rdf:resource="http://purl.org/dc/dcmitype/StillImage" />
      </cc:Work>
    </rdf:RDF>
  </metadata>
  <sodipodi:namedview
     pagecolor="#ffffff"
     bordercolor="#666666"
     borderopacity="1"
     objecttolerance="10"
     gridtolerance="10"
     guidetolerance="10"
     inkscape:pageopacity="0"
     inkscape:pageshadow="2"
     inkscape:window-width="640"
     inkscape:window-height="480"
     id="namedview16"
     showgrid="false"
     inkscape:zoom="35.488721"
     inkscape:cx="4.8299999"
     inkscape:cy="3.325"
     inkscape:window-x="56"
     inkscape:window-y="27"
     inkscape:window-maximized="0"
     inkscape:current-layer="Layer_2" />
  <defs
     id="defs4">
    <style
       id="style2">.cls-1{fill:#231f20;}</style>
  </defs>
  <g
     id="Layer_2"
     data-name="Layer 2">
    <g
       id="Layer_1-2"
       data-name="Layer 1">
      <path
         class="cls-1"
         d="M2.77,1a.44.44,0,0,0-.62,0l-2,2A.48.48,0,0,0,0,3.32a.44.44,0,0,0,.13.31l2,2a.48.48,0,0,0,.31.13.46.46,0,0,0,.31-.13.44.44,0,0,0,0-.62L1.06,3.32,2.77,1.61A.44.44,0,0,0,2.77,1Z"
         id="path6"
         style="fill:#ffffff" />
      <path
         class="cls-1"
         d="M9.53,3,7.76,1.24a.44.44,0,1,0-.62.62L8.61,3.32,7.14,4.79a.44.44,0,0,0,0,.62.46.46,0,0,0,.31.13.48.48,0,0,0,.31-.13L9.53,3.63A.44.44,0,0,0,9.53,3Z"
         id="path8"
         style="fill:#ffffff" />
      <path
         class="cls-1"
         d="M6.37,0a.44.44,0,0,0-.58.22L3.3,6a.43.43,0,0,0,.22.57.39.39,0,0,0,.18,0,.43.43,0,0,0,.4-.27L6.59.61A.43.43,0,0,0,6.37,0Z"
         id="path10"
         style="fill:#ffffff" />
    </g>
  </g>
</svg>
