<?xml version="1.0" encoding="UTF-8" standalone="no"?>
<svg
   xmlns:dc="http://purl.org/dc/elements/1.1/"
   xmlns:cc="http://creativecommons.org/ns#"
   xmlns:rdf="http://www.w3.org/1999/02/22-rdf-syntax-ns#"
   xmlns:svg="http://www.w3.org/2000/svg"
   xmlns="http://www.w3.org/2000/svg"
   xmlns:sodipodi="http://sodipodi.sourceforge.net/DTD/sodipodi-0.dtd"
   xmlns:inkscape="http://www.inkscape.org/namespaces/inkscape"
   version="1.1"
   x="0px"
   y="0px"
   viewBox="0 0 60.847458 60.847458"
   xml:space="preserve"
   id="svg8"
   sodipodi:docname="website.svg"
   inkscape:version="0.92.5 (2060ec1f9f, 2020-04-08)"
   width="60.847458"
   height="60.847458"><metadata
     id="metadata14"><rdf:RDF><cc:Work
         rdf:about=""><dc:format>image/svg+xml</dc:format><dc:type
           rdf:resource="http://purl.org/dc/dcmitype/StillImage" /></cc:Work></rdf:RDF></metadata><defs
     id="defs12" /><sodipodi:namedview
     pagecolor="#ffffff"
     bordercolor="#666666"
     borderopacity="1"
     objecttolerance="10"
     gridtolerance="10"
     guidetolerance="10"
     inkscape:pageopacity="0"
     inkscape:pageshadow="2"
     inkscape:window-width="1951"
     inkscape:window-height="927"
     id="namedview10"
     showgrid="false"
     inkscape:zoom="2.95"
     inkscape:cx="-9.6677966"
     inkscape:cy="20.728814"
     inkscape:window-x="56"
     inkscape:window-y="27"
     inkscape:window-maximized="0"
     inkscape:current-layer="svg8" /><path
     d="m 30.423729,3.3898305 c -14.922712,0 -27.0338985,12.1111865 -27.0338985,27.0338985 0,14.922712 12.1111865,27.033898 27.0338985,27.033898 14.922712,0 27.033898,-12.111186 27.033898,-27.033898 0,-14.922712 -12.111186,-27.0338985 -27.033898,-27.0338985 z M 7.0664405,30.423729 c 0,-2.595254 0.4325427,-5.082373 1.2976271,-7.461356 2.4871184,0.540678 5.1905084,1.081356 7.8938984,1.405763 -0.216271,1.94644 -0.324407,4.001016 -0.324407,6.055593 0,2.811526 0.216272,5.514915 0.648814,8.110169 C 13.554576,38.101356 10.634915,37.452542 8.0396606,36.695593 7.2827118,34.641017 7.0664405,32.586441 7.0664405,30.423729 Z m 12.3274575,0 c 0,-1.946441 0.108136,-3.892881 0.324407,-5.731187 2.919661,0.324407 5.839322,0.432543 8.867119,0.540678 v 14.382035 c -2.919661,-0.108136 -5.731186,-0.324407 -8.434576,-0.648814 -0.432543,-2.595255 -0.75695,-5.514916 -0.75695,-8.542712 z M 32.262034,7.3908473 c 3.67661,1.4057628 6.812542,6.8125427 8.326441,13.9494917 -2.70339,0.216271 -5.514916,0.324407 -8.326441,0.324407 z m -3.568475,0 V 21.664746 c -2.811525,-0.108136 -5.62305,-0.216271 -8.32644,-0.432543 1.513898,-7.136948 4.64983,-12.5437285 8.32644,-13.8413557 z m 0,35.7928817 V 53.45661 c -3.135932,-1.189491 -5.839321,-5.190508 -7.461356,-10.813559 2.378983,0.324407 4.866102,0.540678 7.461356,0.540678 z M 32.262034,53.45661 V 43.291865 c 0.324407,0 0.648814,0 0.865085,0 2.162712,0 4.325423,-0.108136 6.488136,-0.216272 -1.622035,5.40678 -4.325424,9.299662 -7.353221,10.381017 z m 0.865085,-13.73322 c -0.324407,0 -0.648814,0 -0.865085,0 V 25.341356 c 3.027797,0 5.947458,-0.108136 8.867118,-0.432543 0.216272,1.73017 0.324407,3.568475 0.324407,5.514916 0,3.135932 -0.324407,6.271864 -0.865084,9.08339 -2.487119,0.108136 -4.974237,0.216271 -7.461356,0.216271 z M 44.697627,24.584406 c 2.811525,-0.324406 5.514915,-0.756948 8.002034,-1.297627 0.756949,2.270848 1.081356,4.649831 1.081356,7.13695 0,2.70339 -0.432542,5.190509 -1.297627,7.569491 -2.595254,0.540678 -5.40678,0.865085 -8.326441,1.189492 0.540678,-2.70339 0.756949,-5.623051 0.756949,-8.758983 0.108136,-2.054577 0,-4.001017 -0.216271,-5.839323 z m 6.596271,-4.64983 c -2.270847,0.432543 -4.64983,0.756949 -7.245085,1.081356 -0.97322,-4.974237 -2.703389,-9.191526 -4.974237,-12.3274575 5.40678,2.1627115 9.732203,6.1637285 12.219322,11.2461015 z M 21.664746,8.6884745 C 19.502034,11.716271 17.771865,15.825424 16.798644,20.799661 14.311525,20.475255 11.932542,20.042712 9.7698304,19.610169 12.256949,14.635932 16.474238,10.851186 21.664746,8.6884745 Z M 9.4454234,40.804746 c 2.4871186,0.540678 5.0823726,1.081356 7.7857626,1.405763 0.97322,3.892881 2.487119,7.35322 4.43356,9.840339 C 16.366102,49.996271 12.040678,45.887119 9.4454234,40.804746 Z M 39.182712,52.158983 C 40.912882,49.78 42.426779,46.535932 43.4,42.859322 c 2.487119,-0.216271 4.974238,-0.540678 7.35322,-0.865084 -2.595254,4.541694 -6.596271,8.110168 -11.570508,10.164745 z"
     id="path2"
     style="fill:#000000;stroke-width:1.08135593"
     inkscape:connector-curvature="0" /><circle
     style="fill:#d40000"
     id="path16"
     cx="30.338984"
     cy="30.338984"
     r="30.508474" /></svg>