<?xml version="1.0" encoding="UTF-8" standalone="no"?>
<svg
   xmlns:dc="http://purl.org/dc/elements/1.1/"
   xmlns:cc="http://creativecommons.org/ns#"
   xmlns:rdf="http://www.w3.org/1999/02/22-rdf-syntax-ns#"
   xmlns:svg="http://www.w3.org/2000/svg"
   xmlns="http://www.w3.org/2000/svg"
   xmlns:sodipodi="http://sodipodi.sourceforge.net/DTD/sodipodi-0.dtd"
   xmlns:inkscape="http://www.inkscape.org/namespaces/inkscape"
   version="1.1"
   x="0px"
   y="0px"
   viewBox="0 0 60.847458 60.847458"
   xml:space="preserve"
   id="svg8"
   sodipodi:docname="website.svg"
   inkscape:version="0.92.5 (2060ec1f9f, 2020-04-08)"
   width="60.847458"
   height="60.847458"><metadata
     id="metadata14"><rdf:RDF><cc:Work
         rdf:about=""><dc:format>image/svg+xml</dc:format><dc:type
           rdf:resource="http://purl.org/dc/dcmitype/StillImage" /></cc:Work></rdf:RDF></metadata><defs
     id="defs12" /><sodipodi:namedview
     pagecolor="#ffffff"
     bordercolor="#666666"
     borderopacity="1"
     objecttolerance="10"
     gridtolerance="10"
     guidetolerance="10"
     inkscape:pageopacity="0"
     inkscape:pageshadow="2"
     inkscape:window-width="1951"
     inkscape:window-height="927"
     id="namedview10"
     showgrid="false"
     inkscape:zoom="2.95"
     inkscape:cx="-9.6677966"
     inkscape:cy="20.728814"
     inkscape:window-x="56"
     inkscape:window-y="27"
     inkscape:window-maximized="0"
     inkscape:current-layer="svg8" /><path
     d="M 30.423729,0 C 13.629831,0 0,13.629831 0,30.423729 c 0,16.793898 13.629831,30.423729 30.423729,30.423729 16.793898,0 30.423729,-13.629831 30.423729,-30.423729 C 60.847458,13.629831 47.217627,0 30.423729,0 Z M 4.1376269,30.423729 c 0,-2.920678 0.48678,-5.719661 1.460339,-8.396949 2.7989829,0.608474 5.8413561,1.216949 8.8837291,1.582034 -0.24339,2.190508 -0.365085,4.502711 -0.365085,6.814915 0,3.164068 0.24339,6.20644 0.73017,9.127118 -3.407458,-0.486779 -6.6932211,-1.216949 -9.6138991,-2.068813 -0.851864,-2.312203 -1.095254,-4.624407 -1.095254,-7.058305 z m 13.8732201,0 c 0,-2.190509 0.121695,-4.381017 0.365085,-6.449831 3.285763,0.365085 6.571526,0.48678 9.978983,0.608475 v 16.185424 c -3.285762,-0.121695 -6.44983,-0.365085 -9.492203,-0.73017 -0.48678,-2.920678 -0.851865,-6.206441 -0.851865,-9.613898 z M 32.492542,4.5027117 c 4.137627,1.582034 7.66678,7.6667803 9.370509,15.6986443 -3.042373,0.24339 -6.206441,0.365085 -9.370509,0.365085 z m -4.015932,0 V 20.566441 c -3.164068,-0.121695 -6.328135,-0.24339 -9.370508,-0.48678 1.703729,-8.031864 5.232881,-14.1166103 9.370508,-15.5769493 z m 0,40.2810173 v 11.561017 c -3.529152,-1.338644 -6.571525,-5.841356 -8.396949,-12.169492 2.677288,0.365085 5.476271,0.608475 8.396949,0.608475 z m 4.015932,11.561017 V 44.905424 c 0.365085,0 0.73017,0 0.97356,0 2.433898,0 4.867796,-0.121695 7.301695,-0.24339 C 38.942373,50.74678 35.9,55.127797 32.492542,56.344746 Z m 0.97356,-15.455254 c -0.365085,0 -0.73017,0 -0.97356,0 V 24.704068 c 3.407458,0 6.693221,-0.121695 9.978983,-0.48678 0.24339,1.947119 0.365085,4.015932 0.365085,6.206441 0,3.529152 -0.365085,7.058305 -0.973559,10.222373 -2.798983,0.121695 -5.597966,0.24339 -8.396949,0.24339 z M 46.487458,23.852203 c 3.164067,-0.365084 6.20644,-0.851864 9.005423,-1.460339 0.851865,2.555594 1.21695,5.232882 1.21695,8.031865 0,3.042373 -0.48678,5.841356 -1.460339,8.518644 -2.920678,0.608474 -6.084746,0.973559 -9.370509,1.338644 0.608475,-3.042373 0.851864,-6.328136 0.851864,-9.857288 0.121695,-2.312204 0,-4.502712 -0.243389,-6.571526 z m 7.423389,-5.232881 c -2.555593,0.48678 -5.232881,0.851864 -8.153559,1.216949 C 44.662034,14.238305 42.714915,9.4922027 40.159322,5.9630507 46.244068,8.3969487 51.111864,12.899661 53.910847,18.619322 Z M 20.566441,5.9630507 C 18.132542,9.3705077 16.185424,13.994915 15.090169,19.592881 12.291186,19.227797 9.6138978,18.741017 7.1799999,18.254237 9.9789832,12.656271 14.725085,8.3969487 20.566441,5.9630507 Z M 6.8149149,42.106441 c 2.7989829,0.608474 5.7196611,1.216949 8.7620341,1.582034 1.095254,4.381017 2.798983,8.275254 4.989492,11.074237 C 14.60339,52.450508 9.7355929,47.826102 6.8149149,42.106441 Z M 40.281017,54.884407 c 1.947119,-2.677288 3.650847,-6.328136 4.746102,-10.465763 2.798983,-0.24339 5.597966,-0.608475 8.275254,-0.973559 -2.920678,5.111186 -7.42339,9.127118 -13.021356,11.439322 z"
     id="path2"
     style="fill:#000000;stroke-width:1.21694911"
     inkscape:connector-curvature="0" /></svg>