<?xml version="1.0" encoding="UTF-8" standalone="no"?>
<svg
   xmlns:dc="http://purl.org/dc/elements/1.1/"
   xmlns:cc="http://creativecommons.org/ns#"
   xmlns:rdf="http://www.w3.org/1999/02/22-rdf-syntax-ns#"
   xmlns:svg="http://www.w3.org/2000/svg"
   xmlns="http://www.w3.org/2000/svg"
   xmlns:xlink="http://www.w3.org/1999/xlink"
   xmlns:sodipodi="http://sodipodi.sourceforge.net/DTD/sodipodi-0.dtd"
   xmlns:inkscape="http://www.inkscape.org/namespaces/inkscape"
   version="1.1"
   preserveAspectRatio="none"
   x="0px"
   y="0px"
   viewBox="0 0 72.000015 72.000015"
   id="svg15"
   sodipodi:docname="close_outline.svg"
   width="72.000015"
   height="72.000015"
   inkscape:version="0.92.5 (2060ec1f9f, 2020-04-08)">
  <metadata
     id="metadata19">
    <rdf:RDF>
      <cc:Work
         rdf:about="">
        <dc:format>image/svg+xml</dc:format>
        <dc:type
           rdf:resource="http://purl.org/dc/dcmitype/StillImage" />
      </cc:Work>
    </rdf:RDF>
  </metadata>
  <sodipodi:namedview
     pagecolor="#ffffff"
     bordercolor="#666666"
     borderopacity="1"
     objecttolerance="10"
     gridtolerance="10"
     guidetolerance="10"
     inkscape:pageopacity="0"
     inkscape:pageshadow="2"
     inkscape:window-width="640"
     inkscape:window-height="480"
     id="namedview17"
     showgrid="false"
     inkscape:zoom="1.888"
     inkscape:cx="36.000008"
     inkscape:cy="23.500008"
     inkscape:window-x="56"
     inkscape:window-y="27"
     inkscape:window-maximized="0"
     inkscape:current-layer="svg15" />
  <defs
     id="defs5">
    <g
       id="a">
      <path
         d="M 84.25,24.25 Q 86.003711,22.489062 86,20 86.003711,17.510937 84.25,15.75 82.489063,13.996289 80,14 q -2.489063,-0.0037 -4.25,1.75 L 50,41.5 24.25,15.75 Q 22.489062,13.996289 20,14 17.510937,13.996289 15.75,15.75 13.996289,17.510937 14,20 q -0.0037,2.489062 1.75,4.25 L 41.5,50 15.75,75.75 Q 13.996289,77.510937 14,80 q -0.0037,2.489063 1.75,4.25 1.760937,1.753711 4.25,1.75 2.489062,0.0037 4.25,-1.75 L 50,58.5 75.75,84.25 q 1.760937,1.753711 4.25,1.75 2.489063,0.0037 4.25,-1.75 1.753711,-1.760937 1.75,-4.25 0.0037,-2.489063 -1.75,-4.25 L 58.5,50 Z"
         id="path2"
         inkscape:connector-curvature="0"
         style="fill:#000000;stroke:none" />
    </g>
  </defs>
  <g
     id="g9"
     transform="translate(-13.999992,-13.999992)">
    <use
       xlink:href="#a"
       id="use7"
       x="0"
       y="0"
       width="100%"
       height="100%" />
  </g>
</svg>
