<svg xmlns="http://www.w3.org/2000/svg" viewBox="0 0 30.48 29"><defs><style>.a,.b{fill:#fff;}.a{opacity:0.3;}</style></defs><path class="a" d="M27.94,5.93H25.82V17.15a4.23,4.23,0,0,1-4.23,4.23H6.35v1.69a2.54,2.54,0,0,0,2.54,2.54h18.2L30.48,29V8.47A2.54,2.54,0,0,0,27.94,5.93Z"/><path class="b" d="M21.59,0h-19A2.54,2.54,0,0,0,0,2.54V23.07l3.39-3.38h18.2a2.55,2.55,0,0,0,2.54-2.54V2.54A2.54,2.54,0,0,0,21.59,0ZM8.52,13.49a.6.6,0,0,1-.34.11.62.62,0,0,1-.49-.26l-2-2.91a.6.6,0,0,1,0-.68l2-2.83a.6.6,0,0,1,.83-.15.59.59,0,0,1,.16.83L6.9,10.09l1.78,2.56A.6.6,0,0,1,8.52,13.49ZM15,5.09,11.48,15.3a.6.6,0,0,1-.57.4.63.63,0,0,1-.19,0,.59.59,0,0,1-.37-.76L13.9,4.7A.6.6,0,1,1,15,5.09Zm3.7,5.42-1.94,2.83a.64.64,0,0,1-.5.26.62.62,0,0,1-.34-.11.61.61,0,0,1-.15-.84l1.71-2.48L15.74,7.6a.6.6,0,0,1,.15-.83.61.61,0,0,1,.84.15l2,2.91A.57.57,0,0,1,18.73,10.51Z"/></svg>