<?xml version="1.0" encoding="UTF-8" standalone="no"?>
<svg
   xmlns:dc="http://purl.org/dc/elements/1.1/"
   xmlns:cc="http://creativecommons.org/ns#"
   xmlns:rdf="http://www.w3.org/1999/02/22-rdf-syntax-ns#"
   xmlns:svg="http://www.w3.org/2000/svg"
   xmlns="http://www.w3.org/2000/svg"
   xmlns:sodipodi="http://sodipodi.sourceforge.net/DTD/sodipodi-0.dtd"
   xmlns:inkscape="http://www.inkscape.org/namespaces/inkscape"
   version="1.1"
   x="0px"
   y="0px"
   viewBox="0 0 62.609001 69.415001"
   xml:space="preserve"
   id="svg20"
   sodipodi:docname="note_outline.svg"
   width="62.609001"
   height="69.415001"
   inkscape:version="0.92.5 (2060ec1f9f, 2020-04-08)"><metadata
     id="metadata26"><rdf:RDF><cc:Work
         rdf:about=""><dc:format>image/svg+xml</dc:format><dc:type
           rdf:resource="http://purl.org/dc/dcmitype/StillImage" /></cc:Work></rdf:RDF></metadata><defs
     id="defs24" /><sodipodi:namedview
     pagecolor="#ffffff"
     bordercolor="#666666"
     borderopacity="1"
     objecttolerance="10"
     gridtolerance="10"
     guidetolerance="10"
     inkscape:pageopacity="0"
     inkscape:pageshadow="2"
     inkscape:window-width="640"
     inkscape:window-height="480"
     id="namedview22"
     showgrid="false"
     inkscape:zoom="1.888"
     inkscape:cx="30.037"
     inkscape:cy="22.525"
     inkscape:window-x="56"
     inkscape:window-y="27"
     inkscape:window-maximized="0"
     inkscape:current-layer="svg20" /><g
     id="g14"
     transform="translate(-19.963,-15.61)"><g
       id="g6"><path
         style="fill:#231f20"
         d="M 68.422,85.025 H 34.111 c -7.802,0 -14.148,-6.662 -14.148,-14.851 V 30.462 c 0,-8.189 6.347,-14.852 14.148,-14.852 h 25.185 c 0.55,0 1.076,0.219 1.465,0.607 L 81.963,37.42 c 0.388,0.388 0.607,0.915 0.607,1.465 v 31.288 c 0.001,8.189 -6.346,14.852 -14.148,14.852 z M 34.111,19.754 c -5.516,0 -10.005,4.803 -10.005,10.708 v 39.711 c 0,5.905 4.488,10.707 10.005,10.707 h 34.311 c 5.516,0 10.005,-4.802 10.005,-10.707 V 39.743 L 58.438,19.754 Z"
         id="path2"
         inkscape:connector-curvature="0" /><path
         style="fill:#231f20"
         d="m 80.499,43.588 h -8.817 c -7.802,0 -14.149,-6.662 -14.149,-14.852 V 17.991 c 0,-0.838 0.505,-1.594 1.279,-1.914 0.779,-0.32 1.666,-0.142 2.258,0.449 l 20.895,20.895 c 0.388,0.388 0.607,0.915 0.607,1.465 v 2.63 c -0.001,1.144 -0.929,2.072 -2.073,2.072 z M 61.676,22.992 v 5.744 c 0,5.905 4.488,10.708 10.006,10.708 h 6.446 z"
         id="path4"
         inkscape:connector-curvature="0" /></g><path
       style="fill:#231f20"
       d="M 63.877,39.506 H 33.685 c -0.915,0 -1.657,-0.742 -1.657,-1.657 0,-0.915 0.742,-1.657 1.657,-1.657 h 30.192 c 0.915,0 1.657,0.742 1.657,1.657 0,0.915 -0.742,1.657 -1.657,1.657 z"
       id="path8"
       inkscape:connector-curvature="0" /><path
       style="fill:#231f20"
       d="M 68.849,53.118 H 33.685 c -0.915,0 -1.657,-0.741 -1.657,-1.657 0,-0.916 0.742,-1.657 1.657,-1.657 H 68.85 c 0.915,0 1.657,0.741 1.657,1.657 0,0.916 -0.742,1.657 -1.658,1.657 z"
       id="path10"
       inkscape:connector-curvature="0" /><path
       style="fill:#231f20"
       d="M 68.849,66.731 H 33.685 c -0.915,0 -1.657,-0.741 -1.657,-1.657 0,-0.916 0.742,-1.657 1.657,-1.657 H 68.85 c 0.915,0 1.657,0.741 1.657,1.657 0,0.916 -0.742,1.657 -1.658,1.657 z"
       id="path12"
       inkscape:connector-curvature="0" /></g></svg>