<svg xmlns="http://www.w3.org/2000/svg" viewBox="0 0 17.46 19.59"><defs><style>.a{opacity:0.9;}.b{fill:#ff1d25;}</style></defs><g class="a"><path class="b" d="M6.35,0A1.54,1.54,0,0,0,4.82,1.52v.66H.62A.65.65,0,0,0,0,2.86a.66.66,0,0,0,.69.62H14.61l-.43,14.57c0,.15-.08.24-.21.24H3.52a.22.22,0,0,1-.22-.24L2.92,5a.65.65,0,0,0-.67-.63A.66.66,0,0,0,1.61,5l.38,13a1.56,1.56,0,0,0,1.53,1.51H14a1.55,1.55,0,0,0,1.52-1.51l.42-14.6h.89a.65.65,0,0,0,0-1.3H12.66V1.52A1.53,1.53,0,0,0,11.14,0Zm0,1.31h4.79a.19.19,0,0,1,.21.21v.66H6.13V1.52A.2.2,0,0,1,6.35,1.31ZM5.69,5.65A.66.66,0,0,0,5,6.31H5v9.15a.66.66,0,1,0,1.31,0h0V6.31a.64.64,0,0,0-.64-.66Zm3.05,0a.66.66,0,0,0-.65.66h0v9.15a.65.65,0,0,0,.64.66.67.67,0,0,0,.67-.65h0V6.31a.65.65,0,0,0-.64-.66Zm3,0a.64.64,0,0,0-.64.66h0v9.15a.65.65,0,1,0,1.3,0h0V6.31a.64.64,0,0,0-.64-.66Z"/></g></svg>