<svg xmlns="http://www.w3.org/2000/svg" viewBox="0 0 18 16.74"><defs><style>.a{fill:#37a0ea;}</style></defs><path class="a" d="M2.1,16.74A2.1,2.1,0,0,1,0,14.63V11.1A2.1,2.1,0,0,1,2.1,9H4.84a.69.69,0,0,1,0,1.38H2.1a.72.72,0,0,0-.72.73v3.53a.72.72,0,0,0,.72.73H15.89a.71.71,0,0,0,.72-.73V11.1a.71.71,0,0,0-.72-.73H13.15a.69.69,0,1,1,0-1.38h2.74A2.11,2.11,0,0,1,18,11.1v3.53a2.11,2.11,0,0,1-2.11,2.11ZM9,13a.71.71,0,0,1-.69-.7s0-2.79,0-5.6V2.85c0-.17,0-.34,0-.49L5.71,5a.66.66,0,0,1-.51.22.69.69,0,0,1-.68-.76.67.67,0,0,1,.28-.49L8.51.2A.8.8,0,0,1,8.7.07L8.77,0H9a.68.68,0,0,1,.49.2L13.26,4a.61.61,0,0,1,.21.44.67.67,0,0,1-.19.54.71.71,0,0,1-.49.21.69.69,0,0,1-.55-.27L9.69,2.37V6.72c0,2.81,0,5.6,0,5.6A.7.7,0,0,1,9,13Z"/></svg>